<?xml version="1.0" encoding="UTF-8" standalone="no"?>
<!-- Created with Inkscape (http://www.inkscape.org/) -->

<svg
   xmlns:dc="http://purl.org/dc/elements/1.1/"
   xmlns:cc="http://creativecommons.org/ns#"
   xmlns:rdf="http://www.w3.org/1999/02/22-rdf-syntax-ns#"
   xmlns:svg="http://www.w3.org/2000/svg"
   xmlns="http://www.w3.org/2000/svg"
   xmlns:sodipodi="http://sodipodi.sourceforge.net/DTD/sodipodi-0.dtd"
   xmlns:inkscape="http://www.inkscape.org/namespaces/inkscape"
   id="svg2"
   version="1.1"
   inkscape:version="0.48.2 r9819"
   width="20"
   height="20"
   xml:space="preserve"
   sodipodi:docname="pencil_icon.eps"><metadata
     id="metadata8"><rdf:RDF><cc:Work
         rdf:about=""><dc:format>image/svg+xml</dc:format><dc:type
           rdf:resource="http://purl.org/dc/dcmitype/StillImage" /><dc:title></dc:title></cc:Work></rdf:RDF></metadata><defs
     id="defs6"><clipPath
       clipPathUnits="userSpaceOnUse"
       id="clipPath18"><path
         d="m 154.609,130.715 -26.797,23.777 c -3.476,3.555 -8.066,5.508 -12.949,5.508 -4.726,0 -9.14,-1.836 -12.441,-5.164 C 102.383,154.805 17.4766,68.0195 17.4766,68.0195 L 15.7773,66.2891 C 15.2969,65.8203 14.9648,65.2148 14.8008,64.5508 L 0.113281,4.61719 C -0.199219,3.35156 0.160156,2.01172 1.07031,1.09375 1.75391,0.382812 2.69141,0 3.63672,0 3.92969,0 4.23438,0.0390625 4.51562,0.117188 L 63.0898,15.1367 c 0.6563,0.1641 1.2422,0.5078 1.711,0.9961 l 5.457,5.6641 84.6052,82.8831 c 3.36,3.445 5.196,8.062 5.137,13.008 -0.059,4.917 -1.973,9.539 -5.391,13.027 z M 46.0547,26.1016 C 45.8008,25.1484 45.0703,24.4141 44.1406,24.1797 L 28.1367,20.0898 C 27.918,20.0312 27.707,20 27.4805,20 c -0.7227,0 -1.4141,0.3008 -1.9336,0.8477 l -4.8047,5.1796 c -0.6367,0.6836 -0.8906,1.6289 -0.6524,2.5391 L 24.043,44.707 c 0.2343,0.9571 0.9453,1.7071 1.875,1.9727 0.2343,0.0664 0.4687,0.0976 0.7148,0.0976 0.6914,0 1.375,-0.2851 1.8828,-0.8007 L 45.3711,28.7617 c 0.6719,-0.707 0.9375,-1.7109 0.6836,-2.6601 z m 87.8903,89.2534 -9.707,-9.257 c -0.722,-0.731 -1.66,-1.094 -2.578,-1.094 -0.937,0 -1.855,0.363 -2.578,1.094 l -13.008,13.312 c -0.683,0.692 -1.074,1.629 -1.074,2.625 0,0.988 0.391,1.926 1.074,2.617 l 9.715,9.27 c 0.676,0.691 1.606,1.082 2.57,1.082 0.965,0 1.895,-0.391 2.571,-1.082 l 13.015,-13.313 c 1.414,-1.453 1.414,-3.808 0,-5.254"
         id="path20" /></clipPath></defs><sodipodi:namedview
     pagecolor="#ffffff"
     bordercolor="#666666"
     borderopacity="1"
     objecttolerance="10"
     gridtolerance="10"
     guidetolerance="10"
     inkscape:pageopacity="0"
     inkscape:pageshadow="2"
     inkscape:window-width="640"
     inkscape:window-height="480"
     id="namedview4"
     showgrid="false"
     inkscape:zoom="11.8"
     inkscape:cx="10"
     inkscape:cy="10"
     inkscape:window-x="411"
     inkscape:window-y="136"
     inkscape:window-maximized="0"
     inkscape:current-layer="g10" /><g
     id="g10"
     inkscape:groupmode="layer"
     inkscape:label="ink_ext_XXXXXX"
     transform="matrix(1.25,0,0,-1.25,0,20)"><g
       id="g12"
       transform="scale(0.1,0.1)"><g
         id="g14"><g
           id="g16"
           clip-path="url(#clipPath18)"><path
             d="m 154.609,130.715 -26.797,23.777 c -3.476,3.555 -8.066,5.508 -12.949,5.508 -4.726,0 -9.14,-1.836 -12.441,-5.164 C 102.383,154.805 17.4766,68.0195 17.4766,68.0195 L 15.7773,66.2891 C 15.2969,65.8203 14.9648,65.2148 14.8008,64.5508 L 0.113281,4.61719 C -0.199219,3.35156 0.160156,2.01172 1.07031,1.09375 1.75391,0.382812 2.69141,0 3.63672,0 3.92969,0 4.23438,0.0390625 4.51562,0.117188 L 63.0898,15.1367 c 0.6563,0.1641 1.2422,0.5078 1.711,0.9961 l 5.457,5.6641 84.6052,82.8831 c 3.36,3.445 5.196,8.062 5.137,13.008 -0.059,4.917 -1.973,9.539 -5.391,13.027 z M 46.0547,26.1016 C 45.8008,25.1484 45.0703,24.4141 44.1406,24.1797 L 28.1367,20.0898 C 27.918,20.0312 27.707,20 27.4805,20 c -0.7227,0 -1.4141,0.3008 -1.9336,0.8477 l -4.8047,5.1796 c -0.6367,0.6836 -0.8906,1.6289 -0.6524,2.5391 L 24.043,44.707 c 0.2343,0.9571 0.9453,1.7071 1.875,1.9727 0.2343,0.0664 0.4687,0.0976 0.7148,0.0976 0.6914,0 1.375,-0.2851 1.8828,-0.8007 L 45.3711,28.7617 c 0.6719,-0.707 0.9375,-1.7109 0.6836,-2.6601 z m 87.8903,89.2534 -9.707,-9.257 c -0.722,-0.731 -1.66,-1.094 -2.578,-1.094 -0.937,0 -1.855,0.363 -2.578,1.094 l -13.008,13.312 c -0.683,0.692 -1.074,1.629 -1.074,2.625 0,0.988 0.391,1.926 1.074,2.617 l 9.715,9.27 c 0.676,0.691 1.606,1.082 2.57,1.082 0.965,0 1.895,-0.391 2.571,-1.082 l 13.015,-13.313 c 1.414,-1.453 1.414,-3.808 0,-5.254"
             style="fill:url(#(null));fill-opacity:1;fill-rule:nonzero;stroke:none"
             id="path22" /></g></g></g></g></svg>