<?xml version="1.0" encoding="UTF-8" standalone="no"?>
<!-- Created with Inkscape (http://www.inkscape.org/) -->

<svg
   xmlns:dc="http://purl.org/dc/elements/1.1/"
   xmlns:cc="http://creativecommons.org/ns#"
   xmlns:rdf="http://www.w3.org/1999/02/22-rdf-syntax-ns#"
   xmlns:svg="http://www.w3.org/2000/svg"
   xmlns="http://www.w3.org/2000/svg"
   xmlns:sodipodi="http://sodipodi.sourceforge.net/DTD/sodipodi-0.dtd"
   xmlns:inkscape="http://www.inkscape.org/namespaces/inkscape"
   id="svg2"
   version="1.1"
   inkscape:version="0.48.2 r9819"
   width="13.34"
   height="12"
   xml:space="preserve"
   sodipodi:docname="playback_play_icon.eps"><metadata
     id="metadata8"><rdf:RDF><cc:Work
         rdf:about=""><dc:format>image/svg+xml</dc:format><dc:type
           rdf:resource="http://purl.org/dc/dcmitype/StillImage" /><dc:title></dc:title></cc:Work></rdf:RDF></metadata><defs
     id="defs6"><clipPath
       clipPathUnits="userSpaceOnUse"
       id="clipPath18"><path
         d="M 92.6055,59.1328 9.94141,105.797 c -0.9961,0.566 -2.12891,0.863 -3.28125,0.863 -1.1836,0 -2.34375,-0.312 -3.35157,-0.902 C 1.26953,104.566 0,102.359 0,99.9961 L 0,6.66016 C 0,4.29688 1.26953,2.08984 3.30078,0.90625 4.31641,0.3125 5.47656,0 6.66016,0 7.8125,0 8.94531,0.292969 9.94141,0.859375 L 92.6055,47.5234 c 2.0898,1.1836 3.3906,3.4063 3.3906,5.8086 0,2.3985 -1.3008,4.6211 -3.3906,5.8008"
         id="path20"
         inkscape:connector-curvature="0" /></clipPath></defs><sodipodi:namedview
     pagecolor="#ffffff"
     bordercolor="#666666"
     borderopacity="1"
     objecttolerance="10"
     gridtolerance="10"
     guidetolerance="10"
     inkscape:pageopacity="0"
     inkscape:pageshadow="2"
     inkscape:window-width="640"
     inkscape:window-height="480"
     id="namedview4"
     showgrid="false"
     inkscape:zoom="16"
     inkscape:cx="2.7411524"
     inkscape:cy="4.8283324"
     inkscape:window-x="294"
     inkscape:window-y="86"
     inkscape:window-maximized="0"
     inkscape:current-layer="g10" /><g
     id="g10"
     inkscape:groupmode="layer"
     inkscape:label="ink_ext_XXXXXX"
     transform="matrix(1.25,0,0,-1.25,0,12)"><g
       id="g12"
       transform="matrix(0,0.1,-0.1,0,10.675347,-0.00934736)"><g
         id="g14"><g
           id="g16"
           clip-path="url(#clipPath18)"><path
             d="M 92.6055,59.1328 9.94141,105.797 c -0.9961,0.566 -2.12891,0.863 -3.28125,0.863 -1.1836,0 -2.34375,-0.312 -3.35157,-0.902 C 1.26953,104.566 0,102.359 0,99.9961 L 0,6.66016 C 0,4.29688 1.26953,2.08984 3.30078,0.90625 4.31641,0.3125 5.47656,0 6.66016,0 7.8125,0 8.94531,0.292969 9.94141,0.859375 L 92.6055,47.5234 c 2.0898,1.1836 3.3906,3.4063 3.3906,5.8086 0,2.3985 -1.3008,4.6211 -3.3906,5.8008"
             id="path22"
             inkscape:connector-curvature="0" /></g></g></g></g></svg>