<?xml version="1.0" encoding="UTF-8" standalone="no"?>
<!-- Created with Inkscape (http://www.inkscape.org/) -->

<svg
   xmlns:dc="http://purl.org/dc/elements/1.1/"
   xmlns:cc="http://creativecommons.org/ns#"
   xmlns:rdf="http://www.w3.org/1999/02/22-rdf-syntax-ns#"
   xmlns:svg="http://www.w3.org/2000/svg"
   xmlns="http://www.w3.org/2000/svg"
   xmlns:sodipodi="http://sodipodi.sourceforge.net/DTD/sodipodi-0.dtd"
   xmlns:inkscape="http://www.inkscape.org/namespaces/inkscape"
   width="37.299236"
   height="37.296551"
   id="svg4281"
   version="1.1"
   inkscape:version="0.48.2 r9819"
   sodipodi:docname="New document 23">
  <defs
     id="defs4283" />
  <sodipodi:namedview
     id="base"
     pagecolor="#ffffff"
     bordercolor="#666666"
     borderopacity="1.0"
     inkscape:pageopacity="0.0"
     inkscape:pageshadow="2"
     inkscape:zoom="5.6"
     inkscape:cx="59.862474"
     inkscape:cy="17.894098"
     inkscape:document-units="px"
     inkscape:current-layer="layer1"
     showgrid="false"
     fit-margin-top="0"
     fit-margin-left="0"
     fit-margin-right="0"
     fit-margin-bottom="0"
     inkscape:window-width="1366"
     inkscape:window-height="744"
     inkscape:window-x="0"
     inkscape:window-y="24"
     inkscape:window-maximized="1" />
  <metadata
     id="metadata4286">
    <rdf:RDF>
      <cc:Work
         rdf:about="">
        <dc:format>image/svg+xml</dc:format>
        <dc:type
           rdf:resource="http://purl.org/dc/dcmitype/StillImage" />
        <dc:title></dc:title>
      </cc:Work>
    </rdf:RDF>
  </metadata>
  <g
     inkscape:label="Layer 1"
     inkscape:groupmode="layer"
     id="layer1"
     transform="translate(-383.89617,-536.97139)">
    <path
       style="font-size:medium;font-style:normal;font-variant:normal;font-weight:normal;font-stretch:normal;text-indent:0;text-align:start;text-decoration:none;line-height:normal;letter-spacing:normal;word-spacing:normal;text-transform:none;direction:ltr;block-progression:tb;writing-mode:lr-tb;text-anchor:start;baseline-shift:baseline;color:#000000;fill:#000000;fill-opacity:1;stroke:none;stroke-width:2.79999995;marker:none;visibility:visible;display:inline;overflow:visible;enable-background:accumulate;font-family:Sans;-inkscape-font-specification:Sans"
       d="m 390.73993,551.50869 c -0.5674,0.6247 -0.51499,1.70946 0.10997,2.27656 0.62497,0.5671 1.70971,0.51419 2.27652,-0.11104 l 6.96058,-6.96058 1.85615,0 3.20408,-3.20408 -5.74524,0 c -0.41677,-3e-5 -0.83104,0.17055 -1.12695,0.46404 l -7.42462,7.42461 c -0.0386,0.035 -0.0754,0.0719 -0.11049,0.11049 z m 1.67624,6.49341 c -3.20472,3.20471 -3.99785,5.66594 -4.02167,7.42462 -0.0238,1.75868 0.80627,2.92759 1.12695,3.24827 0.32068,0.32067 1.48958,1.15074 3.24827,1.12695 1.75868,-0.0238 4.21991,-0.81695 7.42462,-4.02167 l 4.48571,-4.48572 c -1.73144,-0.5795 -3.28712,-1.74031 -4.66249,-3.11569 -1.37534,-1.37534 -2.53105,-2.92828 -3.11568,-4.66247 z m 7.29204,-7.29205 c -0.29708,0.53546 -0.2562,1.05694 -0.0221,1.78987 0.32817,1.02743 1.24028,2.34514 2.45277,3.55763 1.21251,1.21252 2.53816,2.12989 3.55763,2.45277 0.7646,0.24217 1.2938,0.26655 1.85616,-0.0884 l 8.77254,-8.77255 c 0.0571,-1.16564 0.007,-2.16231 -0.11048,-2.98309 -0.98259,-0.463 -1.83423,-1.21552 -2.65165,-2.03294 -0.80996,-0.80996 -1.56427,-1.67723 -2.03293,-2.65164 -0.81949,-0.11706 -1.81931,-0.16704 -2.98311,-0.11049 z m 13.45712,-10.36352 c -0.004,0.0208 -0.0195,0.0452 -0.0221,0.0663 -0.0188,0.15218 -0.017,0.35368 0.11049,0.64082 0.25502,0.57427 0.93234,1.37427 1.72357,2.16551 0.79125,0.79125 1.57427,1.4501 2.14342,1.70148 0.28457,0.12569 0.51172,0.15183 0.66291,0.13258 l 2.56326,-2.56326 c 1.5392,-1.42408 0.74928,-2.91884 -0.50823,-4.17635 -1.25751,-1.25752 -2.73013,-2.0253 -4.15425,-0.48614 l -2.51907,2.51907 z m -29.01347,31.7093 c -0.40387,0.55064 -0.31964,1.40089 0.18441,1.86159 0.50405,0.46069 1.35843,0.46831 1.87062,0.0167 l 3.09358,-3.09361 c -0.50408,-0.28034 -0.88225,-0.57289 -1.12694,-0.81758 -0.24541,-0.24541 -0.55447,-0.6385 -0.8397,-1.14906 l -3.09358,3.09361 c -0.0308,0.028 -0.0603,0.0575 -0.0884,0.0884 z"
       id="path3920-1-4"
       inkscape:connector-curvature="0"
       sodipodi:nodetypes="csccccccccssssscscscssscccsccccccssccsccccsccscccc" />
  </g>
</svg>
