<!--<?xml version="1.0" encoding="UTF-8" standalone="no"?>-->
<!--<!-- Created with Inkscape (http://www.inkscape.org/) -->-->

<!--<svg-->
<!--   xmlns:dc="http://purl.org/dc/elements/1.1/"-->
<!--   xmlns:cc="http://creativecommons.org/ns#"-->
<!--   xmlns:rdf="http://www.w3.org/1999/02/22-rdf-syntax-ns#"-->
<!--   xmlns:svg="http://www.w3.org/2000/svg"-->
<!--   xmlns="http://www.w3.org/2000/svg"-->
<!--   xmlns:sodipodi="http://sodipodi.sourceforge.net/DTD/sodipodi-0.dtd"-->
<!--   xmlns:inkscape="http://www.inkscape.org/namespaces/inkscape"-->
<!--   width="35.349705"-->
<!--   height="35.347103"-->
<!--   id="svg4281"-->
<!--   version="1.1"-->
<!--   inkscape:version="0.48.2 r9819"-->
<!--   sodipodi:docname="pen_2.svg">-->
<!--  <defs-->
<!--     id="defs4283" />-->
<!--  <sodipodi:namedview-->
<!--     id="base"-->
<!--     pagecolor="#ffffff"-->
<!--     bordercolor="#666666"-->
<!--     borderopacity="1.0"-->
<!--     inkscape:pageopacity="0.0"-->
<!--     inkscape:pageshadow="2"-->
<!--     inkscape:zoom="8"-->
<!--     inkscape:cx="20.831487"-->
<!--     inkscape:cy="-3.3219075"-->
<!--     inkscape:document-units="px"-->
<!--     inkscape:current-layer="layer1"-->
<!--     showgrid="false"-->
<!--     fit-margin-top="0"-->
<!--     fit-margin-left="0"-->
<!--     fit-margin-right="0"-->
<!--     fit-margin-bottom="0"-->
<!--     inkscape:window-width="1366"-->
<!--     inkscape:window-height="744"-->
<!--     inkscape:window-x="0"-->
<!--     inkscape:window-y="24"-->
<!--     inkscape:window-maximized="1" />-->
<!--  <metadata-->
<!--     id="metadata4286">-->
<!--    <rdf:RDF>-->
<!--      <cc:Work-->
<!--         rdf:about="">-->
<!--        <dc:format>image/svg+xml</dc:format>-->
<!--        <dc:type-->
<!--           rdf:resource="http://purl.org/dc/dcmitype/StillImage" />-->
<!--        <dc:title />-->
<!--      </cc:Work>-->
<!--    </rdf:RDF>-->
<!--  </metadata>-->
<!--  <g-->
<!--     inkscape:label="Layer 1"-->
<!--     inkscape:groupmode="layer"-->
<!--     id="layer1"-->
<!--     transform="translate(-392.22215,-533.84304)">-->
<!--    <path-->
<!--       style="font-size:medium;font-style:normal;font-variant:normal;font-weight:normal;font-stretch:normal;text-indent:0;text-align:start;text-decoration:none;line-height:normal;letter-spacing:normal;word-spacing:normal;text-transform:none;direction:ltr;block-progression:tb;writing-mode:lr-tb;text-anchor:start;baseline-shift:baseline;color:#000000;fill:#000000;fill-opacity:0;stroke:none;stroke-width:2.79999995;marker:none;visibility:visible;display:inline;overflow:visible;enable-background:accumulate;font-family:Sans;-inkscape-font-specification:Sans;"-->
<!--       d="m 396.04907,547.3131 c -0.56742,0.62468 -0.515,1.70946 0.10996,2.27656 0.62497,0.56712 1.70972,0.51418 2.27651,-0.11104 l 6.96059,-6.96058 1.85617,0 3.20407,-3.20407 -5.74525,0 c -0.41677,-3e-5 -0.83104,0.17054 -1.12695,0.46403 -2.50779,2.50779 -5.03572,5.03574 -7.5351,7.5351 z m 1.9284,6.74559 c -3.2047,3.2047 -3.82303,5.84076 -3.66504,7.78124 0.15802,1.9405 1.19757,3.31889 1.58547,3.70681 0.38791,0.38787 1.7663,1.42743 3.70678,1.58546 1.94052,0.15801 4.57688,-0.46067 7.78126,-3.66505 l 4.48571,-4.48571 c -1.97362,-0.82169 -3.81398,-2.2672 -5.47764,-3.93086 -1.66361,-1.66361 -3.10318,-3.5004 -3.93082,-5.47761 z m 7.29205,-7.29205 c -0.2721,0.56043 -0.17228,1.14084 0.16316,1.97512 0.47023,1.16952 1.61601,2.72089 3.08267,4.18753 1.46663,1.46666 3.02737,2.61909 4.18751,3.08263 0.8701,0.3477 1.45733,0.4301 2.04142,0.0969 l 8.77253,-8.77256 c -0.059,-1.2818 -0.21887,-2.38816 -0.43469,-3.30728 -1.13407,-0.6145 -2.15382,-1.53514 -3.14257,-2.52389 -0.97972,-0.97972 -1.90397,-2.01697 -2.52388,-3.14258 -0.91763,-0.21521 -2.02748,-0.3752 -3.30732,-0.43468 z m 14.27226,-9.54838 c -0.004,0.0208 -0.0194,0.0452 -0.0221,0.0662 -0.0188,0.15217 -0.017,0.3537 0.11049,0.64084 0.25503,0.57427 0.93235,1.37427 1.72358,2.1655 0.79124,0.79126 1.57426,1.4501 2.14341,1.70147 0.28457,0.12571 0.51172,0.15185 0.66292,0.13259 l 2.56326,-2.56325 c 1.53919,-1.42408 0.74927,-2.91886 -0.50824,-4.17636 -1.25751,-1.25752 -2.73013,-2.02529 -4.15425,-0.48613 l -2.51906,2.51906 z m -27.06393,29.75977 c -0.40388,0.55064 -0.31964,1.4009 0.18439,1.8616 0.50409,0.46066 1.35843,0.46831 1.87063,0.0167 l 1.71858,-1.71862 c -0.50406,-0.28034 -0.88225,-0.57287 -1.12694,-0.81759 -0.24542,-0.2454 -0.55447,-0.63847 -0.8397,-1.14903 -0.59773,0.59769 -1.21665,1.21666 -1.80698,1.807 z"-->
<!--       id="path3920-1-4"-->
<!--       class="pen_2"-->
<!--       inkscape:connector-curvature="0"-->
<!--       sodipodi:nodetypes="cscccccccssssscscscssscccsccccccssccsccccsccsccc" />-->
<!--  </g>-->
<!--</svg>-->

<svg	xmlns="http://www.w3.org/2000/svg"
	xmlns:xlink="http://www.w3.org/1999/xlink"
	width="25" height="25">
	<def>
		<g id="obj">
		<path d="m 396.04907,547.3131 c -0.56742,0.62468 -0.515,1.70946 0.10996,2.27656 0.62497,0.56712 1.70972,0.51418 2.27651,-0.11104 l 6.96059,-6.96058 1.85617,0 3.20407,-3.20407 -5.74525,0 c -0.41677,-3e-5 -0.83104,0.17054 -1.12695,0.46403 -2.50779,2.50779 -5.03572,5.03574 -7.5351,7.5351 z m 1.9284,6.74559 c -3.2047,3.2047 -3.82303,5.84076 -3.66504,7.78124 0.15802,1.9405 1.19757,3.31889 1.58547,3.70681 0.38791,0.38787 1.7663,1.42743 3.70678,1.58546 1.94052,0.15801 4.57688,-0.46067 7.78126,-3.66505 l 4.48571,-4.48571 c -1.97362,-0.82169 -3.81398,-2.2672 -5.47764,-3.93086 -1.66361,-1.66361 -3.10318,-3.5004 -3.93082,-5.47761 z m 7.29205,-7.29205 c -0.2721,0.56043 -0.17228,1.14084 0.16316,1.97512 0.47023,1.16952 1.61601,2.72089 3.08267,4.18753 1.46663,1.46666 3.02737,2.61909 4.18751,3.08263 0.8701,0.3477 1.45733,0.4301 2.04142,0.0969 l 8.77253,-8.77256 c -0.059,-1.2818 -0.21887,-2.38816 -0.43469,-3.30728 -1.13407,-0.6145 -2.15382,-1.53514 -3.14257,-2.52389 -0.97972,-0.97972 -1.90397,-2.01697 -2.52388,-3.14258 -0.91763,-0.21521 -2.02748,-0.3752 -3.30732,-0.43468 z m 14.27226,-9.54838 c -0.004,0.0208 -0.0194,0.0452 -0.0221,0.0662 -0.0188,0.15217 -0.017,0.3537 0.11049,0.64084 0.25503,0.57427 0.93235,1.37427 1.72358,2.1655 0.79124,0.79126 1.57426,1.4501 2.14341,1.70147 0.28457,0.12571 0.51172,0.15185 0.66292,0.13259 l 2.56326,-2.56325 c 1.53919,-1.42408 0.74927,-2.91886 -0.50824,-4.17636 -1.25751,-1.25752 -2.73013,-2.02529 -4.15425,-0.48613 l -2.51906,2.51906 z m -27.06393,29.75977 c -0.40388,0.55064 -0.31964,1.4009 0.18439,1.8616 0.50409,0.46066 1.35843,0.46831 1.87063,0.0167 l 1.71858,-1.71862 c -0.50406,-0.28034 -0.88225,-0.57287 -1.12694,-0.81759 -0.24542,-0.2454 -0.55447,-0.63847 -0.8397,-1.14903 -0.59773,0.59769 -1.21665,1.21666 -1.80698,1.807 z"/>
		</g>
		<filter id="innershadow" x0="-50%" y0="-50%" width="200%" height="200%">
			<feGaussianBlur in="SourceAlpha" stdDeviation="2" result="blur"/>
			<feOffset dy="3" dx="3"/>
			<feComposite in2="SourceAlpha" operator="arithmetic"
					k2="-1" k3="1" result="shadowDiff"/>
			<feFlood flood-color="black" flood-opacity="1"/>
			<feComposite in2="shadowDiff" operator="in"/>
			<feComposite in2="SourceGraphic" operator="over"/>
		</filter>
	</def>
	<use xlink:href="#obj" style="fill:lime;stroke:none;filter:url(#innershadow)"/>
</svg>
